<svg width="74" height="74" viewBox="0 0 74 74" fill="none" xmlns="http://www.w3.org/2000/svg">
<path d="M28.5233 55.1363H45.4734H28.5233ZM37.0001 4.35498V7.98222V4.35498ZM60.0839 13.9164L57.5194 16.4808L60.0839 13.9164ZM69.6453 37.0001H66.0181H69.6453ZM7.98222 37.0001H4.35498H7.98222ZM16.4808 16.4808L13.9164 13.9164L16.4808 16.4808ZM24.1742 49.8261C21.6383 47.2895 19.9115 44.0579 19.2121 40.54C18.5127 37.022 18.8721 33.3757 20.2449 30.062C21.6178 26.7483 23.9423 23.9161 26.9247 21.9235C29.9071 19.9309 33.4133 18.8673 37.0001 18.8673C40.5869 18.8673 44.0932 19.9309 47.0756 21.9235C50.058 23.9161 52.3825 26.7483 53.7554 30.062C55.1282 33.3757 55.4876 37.022 54.7882 40.54C54.0888 44.0579 52.362 47.2895 49.8261 49.8261L47.8383 51.8102C46.702 52.9468 45.8006 54.2961 45.1857 55.781C44.5708 57.266 44.2544 58.8575 44.2546 60.4648V62.3908C44.2546 64.3148 43.4903 66.16 42.1298 67.5205C40.7694 68.881 38.9241 69.6453 37.0001 69.6453C35.0761 69.6453 33.2309 68.881 31.8705 67.5205C30.51 66.16 29.7457 64.3148 29.7457 62.3908V60.4648C29.7457 57.2184 28.4544 54.1026 26.1619 51.8102L24.1742 49.8261Z" stroke="#EC7979" stroke-width="6.83333" stroke-linecap="round" stroke-linejoin="round"/>
</svg>
