<svg width="54" height="54" viewBox="0 0 54 54" fill="none" xmlns="http://www.w3.org/2000/svg">
<path fill-rule="evenodd" clip-rule="evenodd" d="M26.6574 4.43311C14.4458 4.43311 4.54834 14.3305 4.54834 26.5421C4.54834 36.3088 10.8814 44.5969 19.6682 47.5229C20.7743 47.7224 21.1733 47.0419 21.1733 46.4567C21.1733 45.9313 21.1556 44.5393 21.149 42.6972C14.9977 44.0316 13.6987 39.7313 13.6987 39.7313C12.6968 37.1777 11.2449 36.4972 11.2449 36.4972C9.23881 35.1251 11.3978 35.1561 11.3978 35.1561C13.6189 35.3113 14.7827 37.4348 14.7827 37.4348C16.7555 40.813 19.9608 39.8377 21.2155 39.2725C21.4172 37.8427 21.9935 36.8674 22.623 36.3154C17.7153 35.759 12.5549 33.8616 12.5549 25.3873C12.5549 22.9777 13.4172 21.0005 14.8248 19.4577C14.6009 18.8969 13.8362 16.6469 15.0443 13.6057C15.0443 13.6057 16.8996 13.0094 21.1224 15.8689C22.9258 15.3783 24.7862 15.1278 26.6552 15.1241C28.5242 15.1271 30.3846 15.3776 32.188 15.8689C36.4129 13.0072 38.2661 13.6057 38.2661 13.6057C39.4741 16.6469 38.716 18.8969 38.4855 19.4577C39.9042 21.0005 40.7554 22.9755 40.7554 25.3873C40.7554 33.8837 35.5905 35.7502 30.6651 36.2977C31.452 36.9804 32.1614 38.3282 32.1614 40.3897C32.1614 43.3467 32.1348 45.7318 32.1348 46.4567C32.1348 47.0485 32.5293 47.7357 33.6576 47.5185C42.44 44.588 48.7664 36.3066 48.7664 26.5421C48.7664 14.3305 38.869 4.43311 26.6574 4.43311Z" fill="#CCCCCC"/>
</svg>
