<svg width="54" height="54" viewBox="0 0 54 54" fill="none" xmlns="http://www.w3.org/2000/svg">
<path d="M46.4327 18.4094C46.4104 16.7306 46.0961 15.0684 45.5039 13.4973C44.9904 12.1721 44.2062 10.9685 43.2012 9.96357C42.1962 8.9586 40.9927 8.17432 39.6675 7.66083C38.1165 7.07864 36.4781 6.76383 34.8218 6.72983C32.6894 6.63451 32.0133 6.60791 26.6002 6.60791C21.1871 6.60791 20.4933 6.60791 18.3764 6.72983C16.7209 6.76408 15.0832 7.07888 13.533 7.66083C12.2075 8.17396 11.0038 8.95812 9.99877 9.96313C8.99376 10.9681 8.20961 12.1719 7.69647 13.4973C7.11311 15.0471 6.79899 16.6851 6.76769 18.3407C6.67237 20.4754 6.64355 21.1515 6.64355 26.5646C6.64355 31.9777 6.64355 32.6693 6.76769 34.7884C6.80094 36.4465 7.11349 38.0824 7.69647 39.6362C8.21047 40.9613 8.99521 42.1645 10.0006 43.1691C11.0059 44.1737 12.2097 44.9575 13.5352 45.4705C15.0811 46.0761 16.7191 46.4134 18.3786 46.468C20.5132 46.5633 21.1893 46.5921 26.6024 46.5921C32.0155 46.5921 32.7093 46.5921 34.8263 46.468C36.4824 46.4354 38.121 46.1213 39.6719 45.5392C40.9968 45.0251 42.2 44.2407 43.2049 43.2358C44.2098 42.2309 44.9943 41.0276 45.5084 39.7027C46.0914 38.1511 46.4039 36.5152 46.4372 34.8549C46.5325 32.7225 46.5613 32.0464 46.5613 26.6311C46.5569 21.218 46.5569 20.5308 46.4327 18.4094ZM26.5869 36.8011C20.9255 36.8011 16.3393 32.2148 16.3393 26.5535C16.3393 20.8921 20.9255 16.3058 26.5869 16.3058C29.3048 16.3058 31.9113 17.3855 33.8331 19.3073C35.7549 21.2291 36.8346 23.8356 36.8346 26.5535C36.8346 29.2713 35.7549 31.8779 33.8331 33.7997C31.9113 35.7215 29.3048 36.8011 26.5869 36.8011ZM37.2424 18.3163C36.9285 18.3166 36.6177 18.255 36.3276 18.135C36.0376 18.0151 35.774 17.8391 35.5521 17.6171C35.3301 17.3952 35.1541 17.1316 35.0342 16.8416C34.9142 16.5515 34.8526 16.2407 34.8529 15.9268C34.8529 15.6131 34.9146 15.3025 35.0347 15.0128C35.1547 14.723 35.3306 14.4597 35.5524 14.2379C35.7742 14.0161 36.0375 13.8402 36.3273 13.7201C36.6171 13.6001 36.9277 13.5383 37.2413 13.5383C37.555 13.5383 37.8656 13.6001 38.1553 13.7201C38.4451 13.8402 38.7084 14.0161 38.9302 14.2379C39.152 14.4597 39.3279 14.723 39.448 15.0128C39.568 15.3025 39.6298 15.6131 39.6298 15.9268C39.6298 17.2479 38.5613 18.3163 37.2424 18.3163Z" fill="#CCCCCC"/>
<path d="M26.5868 33.2103C30.2632 33.2103 33.2435 30.23 33.2435 26.5536C33.2435 22.8773 30.2632 19.897 26.5868 19.897C22.9105 19.897 19.9302 22.8773 19.9302 26.5536C19.9302 30.23 22.9105 33.2103 26.5868 33.2103Z" fill="#CCCCCC"/>
</svg>
