<svg width="54" height="54" viewBox="0 0 54 54" fill="none" xmlns="http://www.w3.org/2000/svg">
<path d="M44.3332 6.6499H8.86657C8.27867 6.6499 7.71485 6.88344 7.29915 7.29915C6.88344 7.71485 6.6499 8.27867 6.6499 8.86657V44.3332C6.6499 44.9211 6.88344 45.4849 7.29915 45.9007C7.71485 46.3164 8.27867 46.5499 8.86657 46.5499H44.3332C44.9211 46.5499 45.4849 46.3164 45.9007 45.9007C46.3164 45.4849 46.5499 44.9211 46.5499 44.3332V8.86657C46.5499 8.27867 46.3164 7.71485 45.9007 7.29915C45.4849 6.88344 44.9211 6.6499 44.3332 6.6499ZM18.4847 40.6469H12.5618V21.6058H18.4847V40.6469ZM15.5232 19.0056C14.6132 19.0056 13.7404 18.6441 13.0969 18.0006C12.4533 17.3571 12.0918 16.4843 12.0918 15.5742C12.0918 14.6641 12.4533 13.7913 13.0969 13.1478C13.7404 12.5043 14.6132 12.1428 15.5232 12.1428C16.4333 12.1428 17.3061 12.5043 17.9496 13.1478C18.5931 13.7913 18.9546 14.6641 18.9546 15.5742C18.9546 16.4843 18.5931 17.3571 17.9496 18.0006C17.3061 18.6441 16.4333 19.0056 15.5232 19.0056ZM40.6491 40.6469H34.7328V31.3879C34.7328 29.1801 34.6929 26.3406 31.6561 26.3406C28.575 26.3406 28.1072 28.7479 28.1072 31.2327V40.6491H22.1954V21.608H27.8701V24.2103H27.9521C28.739 22.7141 30.6719 21.1358 33.5469 21.1358C39.5408 21.1358 40.6469 25.0771 40.6469 30.2064V40.6469H40.6491Z" fill="#CCCCCC"/>
</svg>
