<svg width="184" height="75" viewBox="0 0 184 75" fill="none" xmlns="http://www.w3.org/2000/svg">
<path d="M10.601 22.4561H16.1136L26.3905 53.1461H20.7992L18.2005 45.4952H8.43537L5.87597 53.1461H0.284668L10.601 22.4561ZM17.2161 41.3023L13.3573 28.6373L9.341 41.3023H17.2161Z" fill="white"/>
<path d="M32.3707 22.4561L39.3007 33.7811L46.1914 22.4561H52.0977L42.4114 38.0172L51.7827 53.1461H45.8764L39.3007 42.2533L32.6857 53.1461H26.74L36.1113 38.0172L26.425 22.4561H32.3707Z" fill="white"/>
<path d="M54.9126 53.1461V22.4561H60.3464V53.1461H54.9126Z" fill="#EC7979"/>
<path d="M87.0875 27.6863H78.1493V53.1461H72.7549V27.6863H63.8167V22.4561H87.0875V27.6863Z" fill="#EC7979"/>
</svg>
