<svg width="54" height="54" viewBox="0 0 54 54" fill="none" xmlns="http://www.w3.org/2000/svg">
<path d="M20.0384 47.7468C22.1664 48.3896 24.3166 48.7664 26.5998 48.7664C32.4787 48.7664 38.1169 46.431 42.274 42.274C46.431 38.1169 48.7664 32.4787 48.7664 26.5998C48.7664 23.6888 48.1931 20.8063 47.0791 18.117C45.9651 15.4276 44.3323 12.9839 42.274 10.9256C40.2156 8.86721 37.772 7.23442 35.0826 6.12044C32.3932 5.00646 29.5107 4.43311 26.5998 4.43311C23.6888 4.43311 20.8063 5.00646 18.117 6.12044C15.4276 7.23442 12.9839 8.86721 10.9256 10.9256C6.76852 15.0826 4.43311 20.7208 4.43311 26.5998C4.43311 36.0206 10.3516 44.1114 18.7084 47.3034C18.5089 45.5744 18.3094 42.7149 18.7084 40.7421L21.2576 29.7918C21.2576 29.7918 20.6148 28.5061 20.6148 26.4668C20.6148 23.4078 22.5211 21.1246 24.6934 21.1246C26.5998 21.1246 27.4864 22.5211 27.4864 24.3166C27.4864 26.2229 26.2229 28.9494 25.5801 31.5651C25.2033 33.7374 26.7328 35.6438 28.9494 35.6438C32.8951 35.6438 35.9541 31.4321 35.9541 25.4914C35.9541 20.1714 32.1414 16.5361 26.6663 16.5361C20.4153 16.5361 16.7356 21.1911 16.7356 26.0899C16.7356 27.9963 17.3563 29.9248 18.3759 31.1883C18.5754 31.3213 18.5754 31.4986 18.5089 31.8311L17.8661 34.2473C17.8661 34.6241 17.6223 34.7571 17.2454 34.4911C14.4081 33.2498 12.7678 29.2154 12.7678 25.9569C12.7678 18.9523 17.7331 12.5904 27.3091 12.5904C34.9344 12.5904 40.8751 18.0656 40.8751 25.3363C40.8751 32.9616 36.1536 39.0796 29.3928 39.0796C27.2426 39.0796 25.1368 37.9269 24.3831 36.5748L22.8979 41.8283C22.3881 43.7346 20.9916 46.2838 20.0384 47.8133V47.7468Z" fill="#CCCCCC"/>
</svg>
