<svg width="54" height="54" viewBox="0 0 54 54" fill="none" xmlns="http://www.w3.org/2000/svg">
<path d="M13.699 44.3331C16.3679 44.3331 18.5314 42.1696 18.5314 39.5008C18.5314 36.832 16.3679 34.6685 13.699 34.6685C11.0302 34.6685 8.8667 36.832 8.8667 39.5008C8.8667 42.1696 11.0302 44.3331 13.699 44.3331Z" fill="#CCCCCC"/>
<path d="M8.8667 9.8418V16.115C24.4499 16.115 37.0849 28.75 37.0849 44.3331H43.358C43.358 25.292 27.9079 9.8418 8.8667 9.8418ZM8.8667 22.3881V28.6613C17.5117 28.6613 24.5385 35.6881 24.5385 44.3331H30.8117C30.8117 32.208 20.9919 22.3881 8.8667 22.3881Z" fill="#CCCCCC"/>
</svg>
