<svg width="54" height="54" viewBox="0 0 54 54" fill="none" xmlns="http://www.w3.org/2000/svg">
<path d="M43.5196 17.7266C43.5484 18.1145 43.5484 18.5002 43.5484 18.8859C43.5484 30.6897 34.5643 44.2911 18.1454 44.2911C13.087 44.2911 8.38764 42.8259 4.43311 40.2812C5.15131 40.3632 5.84291 40.392 6.58992 40.392C10.6087 40.4017 14.5137 39.0579 17.6755 36.5771C15.8122 36.5434 14.0059 35.9287 12.5089 34.8187C11.012 33.7088 9.89893 32.1591 9.32529 30.386C9.87724 30.468 10.4314 30.5234 11.0122 30.5234C11.8124 30.5234 12.617 30.4126 13.3641 30.2197C11.3419 29.8114 9.52362 28.7154 8.21833 27.1179C6.91303 25.5204 6.20132 23.5202 6.20422 21.4572V21.3464C7.39457 22.0092 8.77556 22.4237 10.2386 22.4791C9.01294 21.6647 8.00797 20.5595 7.31331 19.2623C6.61865 17.965 6.2559 16.516 6.25742 15.0444C6.25742 13.3864 6.69854 11.8657 7.47216 10.5402C9.71573 13.3 12.514 15.5577 15.6856 17.1672C18.8573 18.7767 22.3317 19.7021 25.8838 19.8834C25.7464 19.2184 25.6621 18.529 25.6621 17.8374C25.6615 16.6647 25.8921 15.5034 26.3406 14.4199C26.7891 13.3363 27.4468 12.3518 28.276 11.5226C29.1052 10.6933 30.0897 10.0357 31.1733 9.58717C32.2568 9.13866 33.4181 8.90811 34.5909 8.90869C37.1622 8.90869 39.483 9.98599 41.1145 11.7283C43.1134 11.3417 45.0303 10.612 46.7803 9.57148C46.114 11.6348 44.7183 13.3844 42.8546 14.4925C44.6274 14.2903 46.3601 13.824 47.995 13.1093C46.7739 14.8895 45.2608 16.4506 43.5196 17.7266Z" fill="#CCCCCC"/>
</svg>
